<svg fill="#ffd700" version="1.1" id="Layer_1" xmlns="http://www.w3.org/2000/svg" xmlns:xlink="http://www.w3.org/1999/xlink" width="64px" height="64px" viewBox="0 0 48.296 48.257" xml:space="preserve" data-darkreader-inline-fill="" style="--darkreader-inline-fill: #ffd700;"><g id="SVGRepo_bgCarrier" stroke-width="0"></g><g id="SVGRepo_tracerCarrier" stroke-linecap="round" stroke-linejoin="round"></g><g id="SVGRepo_iconCarrier"> <path d="M24.149,0C10.812,0,0,10.8,0,24.125c0,13.326,10.812,24.132,24.149,24.132c13.334,0,24.147-10.807,24.147-24.132 C48.296,10.8,37.483,0,24.149,0z M26.171,35.919c0,1.115-0.907,2.021-2.022,2.021c-1.12,0-2.025-0.908-2.025-2.021V22.507 c0-1.114,0.905-2.022,2.025-2.022c1.115,0,2.022,0.908,2.022,2.022V35.919z M26.171,15.101c0,1.119-0.907,2.022-2.022,2.022 c-1.12,0-2.025-0.903-2.025-2.022v-0.633c0-1.119,0.905-2.022,2.025-2.022c1.115,0,2.022,0.903,2.022,2.022V15.101z"></path> </g></svg>
